<svg width="17" height="16" viewBox="0 0 17 16" fill="none" xmlns="http://www.w3.org/2000/svg">
<mask id="mask0_2681_921" style="mask-type:alpha" maskUnits="userSpaceOnUse" x="1" y="1" width="15" height="14">
<path fill-rule="evenodd" clip-rule="evenodd" d="M8.50065 1.33334C4.82065 1.33334 1.83398 4.32001 1.83398 8.00001C1.83398 11.68 4.82065 14.6667 8.50065 14.6667C12.1807 14.6667 15.1673 11.68 15.1673 8.00001C15.1673 4.32001 12.1807 1.33334 8.50065 1.33334ZM8.50065 8.66668C8.13398 8.66668 7.83398 8.36668 7.83398 8.00001V5.33334C7.83398 4.96668 8.13398 4.66668 8.50065 4.66668C8.86732 4.66668 9.16732 4.96668 9.16732 5.33334V8.00001C9.16732 8.36668 8.86732 8.66668 8.50065 8.66668ZM7.83398 10V11.3333H9.16732V10H7.83398Z" fill="black"/>
</mask>
<g mask="url(#mask0_2681_921)">
<rect x="0.5" width="16" height="16" fill="#DA1414"/>
</g>
</svg>
